<?xml version="1.0" encoding="UTF-8"?>
<svg id="_2" data-name="2" xmlns="http://www.w3.org/2000/svg" viewBox="0 0 810 100">
  <defs>
    <style>
      .cls-1 {
        fill: #ffb301;
        stroke-width: 0px;
      }
    </style>
  </defs>
  <path class="cls-1" d="m18.89,6.95h18.16c1.7,0,3.15-.02,4.36-.06,1.21-.04,1.92-.06,2.15-.06-.53.38-.98.79-1.36,1.25-.38.38-.7.87-.96,1.47-.27.6-.4,1.32-.4,2.15v.68c.07.45.24,1.45.51,3,.26,1.55.6,3.39,1.02,5.54.41,2.15.89,4.53,1.41,7.13.53,2.6,1.09,5.22,1.7,7.86,1.28,6.26,2.75,13.16,4.41,20.71l11.99-48.2,12.67,46.96c1.06-6.94,2-13.31,2.83-19.12.38-2.49.75-4.94,1.13-7.35.38-2.41.72-4.68,1.02-6.79.3-2.11.57-3.92.79-5.43.23-1.51.41-2.6.57-3.28.07-.38.11-.87.11-1.47,0-.98-.13-1.79-.4-2.43-.27-.64-.58-1.15-.96-1.53-.38-.45-.83-.79-1.36-1.02h26.93c-.6.45-1.24,1.06-1.92,1.81-.6.6-1.24,1.36-1.92,2.26s-1.43,1.96-2.26,3.17c-.38.6-.85,1.92-1.41,3.96-.57,2.04-1.17,4.54-1.81,7.52-.64,2.98-1.32,6.28-2.04,9.9-.72,3.62-1.41,7.32-2.09,11.09-.68,3.77-1.32,7.47-1.92,11.09-.6,3.62-1.13,6.92-1.58,9.9-.45,2.98-.81,5.49-1.08,7.52-.27,2.04-.4,3.32-.4,3.85,0,1.13.19,2.15.57,3.05.38.91.83,1.66,1.36,2.26.6.75,1.28,1.36,2.04,1.81h-26.02c.45-.3.83-.68,1.13-1.13.3-.38.58-.89.85-1.53.26-.64.4-1.41.4-2.32,0-.3-.06-.89-.17-1.75-.11-.87-.28-1.92-.51-3.17-.23-1.25-.47-2.58-.74-4.02-.27-1.43-.55-2.87-.85-4.3-.68-3.39-1.4-7.13-2.15-11.2-.75,3.85-1.47,7.39-2.15,10.64-.6,2.79-1.13,5.53-1.58,8.2-.45,2.68-.72,4.51-.79,5.49v.57c0,.91.09,1.64.28,2.21.19.57.43,1.04.74,1.41.3.38.64.68,1.02.91h-26.25c.91-.6,1.73-1.28,2.49-2.04.6-.6,1.19-1.32,1.75-2.15.57-.83.85-1.73.85-2.72,0-.6-.34-2.51-1.02-5.71-.68-3.21-1.57-7.03-2.66-11.48-1.09-4.45-2.26-9.26-3.51-14.43-1.24-5.17-2.45-10.03-3.62-14.6-1.17-4.56-2.17-8.52-3-11.88-.83-3.36-1.36-5.49-1.58-6.39-.38-1.28-.83-2.43-1.36-3.45-.53-1.02-1.06-1.83-1.58-2.43-.6-.75-1.21-1.39-1.81-1.92Z"/>
  <path class="cls-1" d="m115.63,92.49l-19.24-18.33v-40.51l19.24-15.84,18.56,15.84v40.51l-18.56,18.33Zm6.45-22.52v-31l-6.45-4.98-6.45,4.98v31l6.45,6.11,6.45-6.11Z"/>
  <path class="cls-1" d="m142.9,85.59c.53-.6,1.11-1.43,1.75-2.49.64-1.06,1.24-2.26,1.81-3.62.57-1.36.85-2.79.85-4.3v-36.21l-8.6-5.88,24.67-15.28,23.31,25.46-15.05,13.01,9.05,5.43c-.15.61-.27,1.32-.34,2.15-.08.68-.13,1.47-.17,2.38-.04.91-.06,1.89-.06,2.94,0,1.43.07,2.96.23,4.58.15,1.62.43,3.19.85,4.7.41,1.51,1,2.94,1.75,4.3.75,1.36,1.73,2.49,2.94,3.39h-13.69c-.98-.83-1.89-1.7-2.72-2.6-.68-.83-1.28-1.75-1.81-2.77-.53-1.02-.79-2.09-.79-3.22,0-1.05-.02-2.13-.06-3.22-.04-1.09-.1-2.09-.17-3-.08-1.06-.11-2.07-.11-3.05l-7.02-5.66c0,2.19.04,4.26.11,6.22,0,1.74.02,3.47.06,5.21.04,1.74.06,3.13.06,4.19,0,1.13.21,2.19.62,3.17.41.98.92,1.81,1.53,2.49.6.83,1.32,1.58,2.15,2.26h-14.88c-1.32,0-2.49.02-3.51.06-1.02.04-2.21.09-3.56.17,0,.07.26-.19.79-.79Zm23.42-43l-6.79-7.24v14.6l6.79-7.36Z"/>
  <path class="cls-1" d="m186.91,74.04c2.56-.23,4.26-.79,5.09-1.7.83-.91,1.24-2.79,1.24-5.66v-26.93c-1.28-1.28-2.6-2.45-3.96-3.51-1.36-1.06-2.11-1.62-2.26-1.7l20.14-18.56c0,4.23.02,7.68.06,10.35.04,2.68.06,5.45.06,8.32v37.11h1.02c1.06,0,2.58-.04,4.58-.11,2-.07,4.05-.32,6.17-.74,2.11-.41,4.13-1.07,6.05-1.98,1.92-.91,3.34-2.19,4.24-3.85v16.07l-.34.57c-.45.68-.87,1.26-1.24,1.75-.38.49-.96.91-1.75,1.25-.79.34-1.85.6-3.17.79-1.32.19-3.15.34-5.49.45-2.34.11-5.24.19-8.71.23-3.47.04-7.73.06-12.79.06l-8.94-12.22Z"/>
  <path class="cls-1" d="m237.83,35.01l-8.03-4.64,20.48-11.99,26.93,21.72c0,7.02.02,13.11.06,18.27.04,5.17-.1,9.56-.4,13.18-.3,3.62-.87,6.6-1.7,8.94-.83,2.34-2.08,4.23-3.73,5.66h-37.57c.83-1.28,1.49-2.43,1.98-3.45.49-1.02.94-2.17,1.36-3.45.41-1.28.62-2.6.62-3.96v-40.28Zm26.25,11.09l-13.8-7.69v37.11h8.6c1.58,0,2.85-.55,3.79-1.64.94-1.09,1.41-2.21,1.41-3.34v-24.44Z"/>
  <path class="cls-1" d="m322.57,92.49l-19.24-18.33v-40.51l19.24-15.84,18.56,15.84v40.51l-18.56,18.33Zm6.45-22.52v-31l-6.45-4.98-6.45,4.98v31l6.45,6.11,6.45-6.11Z"/>
  <path class="cls-1" d="m347.01,86.15c.68-.83,1.32-1.7,1.92-2.6.53-.83,1-1.75,1.41-2.77.41-1.02.62-2.05.62-3.11,0-.53-.02-1.51-.06-2.94-.04-1.43-.08-3.11-.11-5.04-.04-1.92-.08-4.03-.11-6.34-.04-2.3-.06-4.58-.06-6.84-.15-5.36-.27-11.28-.34-17.76-1.66-.6-3.13-1.17-4.41-1.7-1.13-.45-2.15-.85-3.05-1.19-.91-.34-1.36-.58-1.36-.74,1.66-1.13,3.15-2.15,4.47-3.05s2.83-1.94,4.53-3.11c1.7-1.17,3.45-2.36,5.26-3.56,4.15-2.79,8.94-6,14.37-9.62l13.69,18.44-6.45,4.75-7.02-7.58-5.43,4.3v13.8h12.67v12.79l-2.49-2.72h-10.18v18.1c0,1.06.32,2.09.96,3.11.64,1.02,1.38,1.94,2.21,2.77.91.91,1.96,1.77,3.17,2.6h-24.21Z"/>
  <path class="cls-1" d="m406.3,6.95h18.16c1.7,0,3.15-.02,4.36-.06,1.21-.04,1.92-.06,2.15-.06-.53.38-.98.79-1.36,1.25-.38.38-.7.87-.96,1.47-.27.6-.4,1.32-.4,2.15v.68c.07.45.24,1.45.51,3,.26,1.55.6,3.39,1.02,5.54.41,2.15.89,4.53,1.41,7.13.53,2.6,1.09,5.22,1.7,7.86,1.28,6.26,2.75,13.16,4.41,20.71l11.99-48.2,12.67,46.96c1.06-6.94,2-13.31,2.83-19.12.38-2.49.75-4.94,1.13-7.35.38-2.41.72-4.68,1.02-6.79.3-2.11.57-3.92.79-5.43.23-1.51.41-2.6.57-3.28.07-.38.11-.87.11-1.47,0-.98-.13-1.79-.4-2.43-.27-.64-.58-1.15-.96-1.53-.38-.45-.83-.79-1.36-1.02h26.93c-.6.45-1.24,1.06-1.92,1.81-.6.6-1.24,1.36-1.92,2.26s-1.43,1.96-2.26,3.17c-.38.6-.85,1.92-1.41,3.96-.57,2.04-1.17,4.54-1.81,7.52-.64,2.98-1.32,6.28-2.04,9.9-.72,3.62-1.41,7.32-2.09,11.09-.68,3.77-1.32,7.47-1.92,11.09-.6,3.62-1.13,6.92-1.58,9.9-.45,2.98-.81,5.49-1.08,7.52-.27,2.04-.4,3.32-.4,3.85,0,1.13.19,2.15.57,3.05.38.91.83,1.66,1.36,2.26.6.75,1.28,1.36,2.04,1.81h-26.02c.45-.3.83-.68,1.13-1.13.3-.38.58-.89.85-1.53.26-.64.4-1.41.4-2.32,0-.3-.06-.89-.17-1.75-.11-.87-.28-1.92-.51-3.17-.23-1.25-.47-2.58-.74-4.02-.27-1.43-.55-2.87-.85-4.3-.68-3.39-1.4-7.13-2.15-11.2-.75,3.85-1.47,7.39-2.15,10.64-.6,2.79-1.13,5.53-1.58,8.2-.45,2.68-.72,4.51-.79,5.49v.57c0,.91.09,1.64.28,2.21.19.57.43,1.04.74,1.41.3.38.64.68,1.02.91h-26.25c.91-.6,1.73-1.28,2.49-2.04.6-.6,1.19-1.32,1.75-2.15.57-.83.85-1.73.85-2.72,0-.6-.34-2.51-1.02-5.71-.68-3.21-1.57-7.03-2.66-11.48-1.09-4.45-2.26-9.26-3.51-14.43-1.24-5.17-2.45-10.03-3.62-14.6-1.17-4.56-2.17-8.52-3-11.88-.83-3.36-1.36-5.49-1.58-6.39-.38-1.28-.83-2.43-1.36-3.45-.53-1.02-1.06-1.83-1.58-2.43-.6-.75-1.21-1.39-1.81-1.92Z"/>
  <path class="cls-1" d="m503.72,86.15h-3.45c-2.15,0-4.55-.04-7.18-.11l-10.41-.23c.68-.53,1.43-1.38,2.26-2.55.83-1.17,1.32-2.51,1.47-4.02.07-.45.24-1.39.51-2.83.26-1.43.58-3.19.96-5.26.38-2.07.81-4.36,1.3-6.85.49-2.49.96-5.02,1.41-7.58,1.13-5.96,2.41-12.6,3.85-19.91l-3.62-4.98,23.08-13.69c-.23,1.13-.42,2.26-.57,3.39-.15,1.06-.21,2.17-.17,3.34.04,1.17.21,2.28.51,3.34.38,1.13.91,3.02,1.58,5.66.68,2.64,1.43,5.36,2.26,8.15.83,3.24,1.81,6.75,2.94,10.52l8.49-2.49,1.58,7.24-7.69,3.28c.75,3.77,1.58,7.32,2.49,10.64.75,2.87,1.62,5.71,2.6,8.54.98,2.83,2,4.96,3.05,6.39h-20.82c.6-.68,1.17-1.43,1.7-2.26.45-.68.87-1.42,1.24-2.21.38-.79.57-1.6.57-2.43s-.11-2.04-.34-3.62c-.23-1.58-.45-3.17-.68-4.75-.3-1.88-.64-3.88-1.02-6-2.79.98-5.24,2.19-7.35,3.62-1.81,1.28-3.41,2.85-4.81,4.7-1.4,1.85-1.91,4.06-1.53,6.62,1.88,2.42,3.34,4.07,4.36,4.98,1.02.91,1.49,1.36,1.41,1.36Zm-2.49-24.78l8.49-5.66-4.87-14.03-3.62,19.69Z"/>
  <path class="cls-1" d="m536.08,85.59c.53-.6,1.11-1.43,1.75-2.49.64-1.06,1.24-2.26,1.81-3.62.57-1.36.85-2.79.85-4.3v-36.21l-8.6-5.88,24.67-15.28,23.31,25.46-15.05,13.01,9.05,5.43c-.15.61-.27,1.32-.34,2.15-.08.68-.13,1.47-.17,2.38-.04.91-.06,1.89-.06,2.94,0,1.43.07,2.96.23,4.58.15,1.62.43,3.19.85,4.7.41,1.51,1,2.94,1.75,4.3.75,1.36,1.73,2.49,2.94,3.39h-13.69c-.98-.83-1.89-1.7-2.72-2.6-.68-.83-1.28-1.75-1.81-2.77-.53-1.02-.79-2.09-.79-3.22,0-1.05-.02-2.13-.06-3.22-.04-1.09-.1-2.09-.17-3-.08-1.06-.11-2.07-.11-3.05l-7.02-5.66c0,2.19.04,4.26.11,6.22,0,1.74.02,3.47.06,5.21.04,1.74.06,3.13.06,4.19,0,1.13.21,2.19.62,3.17.41.98.92,1.81,1.53,2.49.6.83,1.32,1.58,2.15,2.26h-14.88c-1.32,0-2.49.02-3.51.06-1.02.04-2.21.09-3.56.17,0,.07.26-.19.79-.79Zm23.42-43l-6.79-7.24v14.6l6.79-7.36Z"/>
  <path class="cls-1" d="m609.29,66.12l4.07,13.8-14.71,13.24-16.29-17.76v-41.19l15.5-16.75,16.86,17.54-9.5,6.34-4.98-7.13-3.28,4.41v33.72l3.17,3.85,9.17-10.07Z"/>
  <path class="cls-1" d="m619.47,85.59c.53-.6,1.11-1.43,1.75-2.49.64-1.06,1.24-2.26,1.81-3.62.57-1.36.85-2.79.85-4.3v-36.21l-8.6-5.88,24.67-15.28,23.31,25.46-15.05,13.01,9.05,5.43c-.15.61-.27,1.32-.34,2.15-.08.68-.13,1.47-.17,2.38-.04.91-.06,1.89-.06,2.94,0,1.43.07,2.96.23,4.58.15,1.62.43,3.19.85,4.7.41,1.51,1,2.94,1.75,4.3.75,1.36,1.73,2.49,2.94,3.39h-13.69c-.98-.83-1.89-1.7-2.72-2.6-.68-.83-1.28-1.75-1.81-2.77-.53-1.02-.79-2.09-.79-3.22,0-1.05-.02-2.13-.06-3.22-.04-1.09-.1-2.09-.17-3-.08-1.06-.11-2.07-.11-3.05l-7.02-5.66c0,2.19.04,4.26.11,6.22,0,1.74.02,3.47.06,5.21.04,1.74.06,3.13.06,4.19,0,1.13.21,2.19.62,3.17.41.98.92,1.81,1.53,2.49.6.83,1.32,1.58,2.15,2.26h-14.88c-1.32,0-2.49.02-3.51.06-1.02.04-2.21.09-3.56.17,0,.07.26-.19.79-.79Zm23.42-43l-6.79-7.24v14.6l6.79-7.36Z"/>
  <path class="cls-1" d="m685.21,86.15h-3.45c-2.15,0-4.55-.04-7.18-.11l-10.41-.23c.68-.53,1.43-1.38,2.26-2.55.83-1.17,1.32-2.51,1.47-4.02.07-.45.24-1.39.51-2.83.26-1.43.58-3.19.96-5.26.38-2.07.81-4.36,1.3-6.85.49-2.49.96-5.02,1.41-7.58,1.13-5.96,2.41-12.6,3.85-19.91l-3.62-4.98,23.08-13.69c-.23,1.13-.42,2.26-.57,3.39-.15,1.06-.21,2.17-.17,3.34.04,1.17.21,2.28.51,3.34.38,1.13.91,3.02,1.58,5.66.68,2.64,1.43,5.36,2.26,8.15.83,3.24,1.81,6.75,2.94,10.52l8.49-2.49,1.58,7.24-7.69,3.28c.75,3.77,1.58,7.32,2.49,10.64.75,2.87,1.62,5.71,2.6,8.54.98,2.83,2,4.96,3.05,6.39h-20.82c.6-.68,1.17-1.43,1.7-2.26.45-.68.87-1.42,1.24-2.21.38-.79.57-1.6.57-2.43s-.11-2.04-.34-3.62c-.23-1.58-.45-3.17-.68-4.75-.3-1.88-.64-3.88-1.02-6-2.79.98-5.24,2.19-7.35,3.62-1.81,1.28-3.41,2.85-4.81,4.7-1.4,1.85-1.91,4.06-1.53,6.62,1.88,2.42,3.34,4.07,4.36,4.98,1.02.91,1.49,1.36,1.41,1.36Zm-2.49-24.78l8.49-5.66-4.87-14.03-3.62,19.69Z"/>
  <path class="cls-1" d="m714.74,86.15c.68-.83,1.32-1.7,1.92-2.6.53-.83,1-1.75,1.41-2.77.41-1.02.62-2.05.62-3.11,0-.53-.02-1.51-.06-2.94-.04-1.43-.08-3.11-.11-5.04-.04-1.92-.08-4.03-.11-6.34-.04-2.3-.06-4.58-.06-6.84-.15-5.36-.27-11.28-.34-17.76-1.66-.6-3.13-1.17-4.41-1.7-1.13-.45-2.15-.85-3.05-1.19-.91-.34-1.36-.58-1.36-.74,1.66-1.13,3.15-2.15,4.47-3.05s2.83-1.94,4.53-3.11c1.7-1.17,3.45-2.36,5.26-3.56,4.15-2.79,8.94-6,14.37-9.62l13.69,18.44-6.45,4.75-7.02-7.58-5.43,4.3v13.8h12.67v12.79l-2.49-2.72h-10.18v18.1c0,1.06.32,2.09.96,3.11.64,1.02,1.38,1.94,2.21,2.77.91.91,1.96,1.77,3.17,2.6h-24.21Z"/>
  <path class="cls-1" d="m757.85,86.15c0,.15.34-.09,1.02-.74.68-.64,1.41-1.49,2.21-2.55.79-1.06,1.51-2.26,2.15-3.62.64-1.36.96-2.68.96-3.96v-40.85c-.83,0-1.81.06-2.94.17s-2.26.36-3.39.74c-1.13.38-2.19.92-3.17,1.64-.98.72-1.74,1.72-2.26,3v-19.01h38.7v17.65c-.83-1.73-2.38-2.87-4.64-3.39-2.26-.53-5.09-.79-8.49-.79v38.92c0,1.96.38,3.75,1.13,5.38.75,1.62,1.62,2.96,2.6,4.02,1.06,1.36,2.3,2.49,3.73,3.39h-27.61Z"/>
</svg>