<?xml version="1.0" encoding="UTF-8"?>
<svg id="_2" data-name="2" xmlns="http://www.w3.org/2000/svg" viewBox="0 0 225 100">
  <defs>
    <style>
      .cls-1 {
        fill: #ffb301;
        stroke-width: 0px;
      }
    </style>
  </defs>
  <path class="cls-1" d="m9.54,7.29h18.16c1.7,0,3.15-.02,4.36-.06,1.21-.04,1.92-.06,2.15-.06-.53.38-.98.79-1.36,1.25-.38.38-.7.87-.96,1.47-.27.6-.4,1.32-.4,2.15v.68c.07.45.24,1.45.51,3,.26,1.55.6,3.39,1.02,5.54.41,2.15.89,4.53,1.41,7.13.53,2.6,1.09,5.22,1.7,7.86,1.28,6.26,2.75,13.16,4.41,20.71l11.99-48.2,12.67,46.96c1.06-6.94,2-13.31,2.83-19.12.38-2.49.75-4.94,1.13-7.35.38-2.41.72-4.68,1.02-6.79.3-2.11.57-3.92.79-5.43.23-1.51.41-2.6.57-3.28.07-.38.11-.87.11-1.47,0-.98-.13-1.79-.4-2.43-.27-.64-.58-1.15-.96-1.53-.38-.45-.83-.79-1.36-1.02h26.93c-.6.45-1.24,1.06-1.92,1.81-.6.6-1.24,1.36-1.92,2.26s-1.43,1.96-2.26,3.17c-.38.6-.85,1.92-1.41,3.96-.57,2.04-1.17,4.54-1.81,7.52-.64,2.98-1.32,6.28-2.04,9.9-.72,3.62-1.41,7.32-2.09,11.09-.68,3.77-1.32,7.47-1.92,11.09-.6,3.62-1.13,6.92-1.58,9.9-.45,2.98-.81,5.49-1.08,7.52-.27,2.04-.4,3.32-.4,3.85,0,1.13.19,2.15.57,3.05.38.91.83,1.66,1.36,2.26.6.75,1.28,1.36,2.04,1.81h-26.02c.45-.3.83-.68,1.13-1.13.3-.38.58-.89.85-1.53.26-.64.4-1.41.4-2.32,0-.3-.06-.89-.17-1.75-.11-.87-.28-1.92-.51-3.17-.23-1.25-.47-2.58-.74-4.02-.27-1.43-.55-2.87-.85-4.3-.68-3.39-1.4-7.13-2.15-11.2-.75,3.85-1.47,7.39-2.15,10.64-.6,2.79-1.13,5.53-1.58,8.2-.45,2.68-.72,4.51-.79,5.49v.57c0,.91.09,1.64.28,2.21.19.57.43,1.04.74,1.41.3.38.64.68,1.02.91h-26.25c.91-.6,1.73-1.28,2.49-2.04.6-.6,1.19-1.32,1.75-2.15.57-.83.85-1.73.85-2.72,0-.6-.34-2.51-1.02-5.71-.68-3.21-1.57-7.03-2.66-11.48-1.09-4.45-2.26-9.26-3.51-14.43-1.24-5.17-2.45-10.03-3.62-14.6-1.17-4.56-2.17-8.52-3-11.88-.83-3.36-1.36-5.49-1.58-6.39-.38-1.28-.83-2.43-1.36-3.45-.53-1.02-1.06-1.83-1.58-2.43-.6-.75-1.21-1.39-1.81-1.92Z"/>
  <path class="cls-1" d="m112.28,92.83l-19.24-18.33v-40.51l19.24-15.84,18.56,15.84v40.51l-18.56,18.33Zm6.45-22.52v-31l-6.45-4.98-6.45,4.98v31l6.45,6.11,6.45-6.11Z"/>
  <path class="cls-1" d="m129.13,7.29h18.16c1.7,0,3.15-.02,4.36-.06,1.21-.04,1.92-.06,2.15-.06-.53.38-.98.79-1.36,1.25-.38.38-.7.87-.96,1.47-.27.6-.4,1.32-.4,2.15v.68c.07.45.24,1.45.51,3,.26,1.55.6,3.39,1.02,5.54.41,2.15.89,4.53,1.41,7.13.53,2.6,1.09,5.22,1.7,7.86,1.28,6.26,2.75,13.16,4.41,20.71l11.99-48.2,12.67,46.96c1.06-6.94,2-13.31,2.83-19.12.38-2.49.75-4.94,1.13-7.35.38-2.41.72-4.68,1.02-6.79.3-2.11.57-3.92.79-5.43.23-1.51.41-2.6.57-3.28.07-.38.11-.87.11-1.47,0-.98-.13-1.79-.4-2.43-.27-.64-.58-1.15-.96-1.53-.38-.45-.83-.79-1.36-1.02h26.93c-.6.45-1.24,1.06-1.92,1.81-.6.6-1.24,1.36-1.92,2.26s-1.43,1.96-2.26,3.17c-.38.6-.85,1.92-1.41,3.96-.57,2.04-1.17,4.54-1.81,7.52-.64,2.98-1.32,6.28-2.04,9.9-.72,3.62-1.41,7.32-2.09,11.09-.68,3.77-1.32,7.47-1.92,11.09-.6,3.62-1.13,6.92-1.58,9.9-.45,2.98-.81,5.49-1.08,7.52-.27,2.04-.4,3.32-.4,3.85,0,1.13.19,2.15.57,3.05.38.91.83,1.66,1.36,2.26.6.75,1.28,1.36,2.04,1.81h-26.02c.45-.3.83-.68,1.13-1.13.3-.38.58-.89.85-1.53.26-.64.4-1.41.4-2.32,0-.3-.06-.89-.17-1.75-.11-.87-.28-1.92-.51-3.17-.23-1.25-.47-2.58-.74-4.02-.27-1.43-.55-2.87-.85-4.3-.68-3.39-1.4-7.13-2.15-11.2-.75,3.85-1.47,7.39-2.15,10.64-.6,2.79-1.13,5.53-1.58,8.2-.45,2.68-.72,4.51-.79,5.49v.57c0,.91.09,1.64.28,2.21.19.57.43,1.04.74,1.41.3.38.64.68,1.02.91h-26.25c.91-.6,1.73-1.28,2.49-2.04.6-.6,1.19-1.32,1.75-2.15.57-.83.85-1.73.85-2.72,0-.6-.34-2.51-1.02-5.71-.68-3.21-1.57-7.03-2.66-11.48-1.09-4.45-2.26-9.26-3.51-14.43-1.24-5.17-2.45-10.03-3.62-14.6-1.17-4.56-2.17-8.52-3-11.88-.83-3.36-1.36-5.49-1.58-6.39-.38-1.28-.83-2.43-1.36-3.45-.53-1.02-1.06-1.83-1.58-2.43-.6-.75-1.21-1.39-1.81-1.92Z"/>
</svg>